<svg width="150" height="77" viewBox="0 0 150 77" fill="none" xmlns="http://www.w3.org/2000/svg">
<path d="M0 17.399C0 7.78978 7.78977 0 17.3989 0H142.882C146.726 0 149.842 3.11591 149.842 6.95958V6.95958C149.842 16.5688 142.052 24.3585 132.443 24.3585H6.95959C3.11592 24.3585 0 21.2426 0 17.399V17.399Z" fill="white"/>
<path d="M20.1287 16.9525V6.45713H23.3581C24.2808 6.45713 25.1049 6.66617 25.8306 7.08425C26.561 7.49753 27.1305 8.08862 27.5389 8.85751C27.9474 9.6216 28.1517 10.4914 28.1517 11.4669V11.9499C28.1517 12.9254 27.9498 13.7928 27.5462 14.5521C27.1473 15.3114 26.5826 15.9001 25.8522 16.3182C25.1217 16.7363 24.2976 16.9477 23.3797 16.9525H20.1287ZM22.2913 8.20876V15.2153H23.3365C24.1822 15.2153 24.8286 14.939 25.2755 14.3863C25.7224 13.8337 25.9507 13.0432 25.9603 12.0148V11.4597C25.9603 10.3929 25.7393 9.58556 25.2971 9.03772C24.855 8.48508 24.2087 8.20876 23.3581 8.20876H22.2913ZM29.269 12.9807C29.269 12.207 29.4179 11.5174 29.7159 10.9119C30.0138 10.3064 30.4415 9.83785 30.999 9.50627C31.5612 9.17468 32.2124 9.00889 32.9524 9.00889C34.0049 9.00889 34.8627 9.33086 35.5258 9.97481C36.1938 10.6188 36.5662 11.4934 36.6431 12.5987L36.6575 13.1321C36.6575 14.3287 36.3235 15.2898 35.6556 16.0154C34.9876 16.7363 34.0914 17.0967 32.9668 17.0967C31.8423 17.0967 30.9437 16.7363 30.2709 16.0154C29.6029 15.2946 29.269 14.3143 29.269 13.0744V12.9807ZM31.3522 13.1321C31.3522 13.8721 31.4915 14.4392 31.7703 14.8333C32.049 15.2225 32.4478 15.4171 32.9668 15.4171C33.4714 15.4171 33.8655 15.2249 34.149 14.8405C34.4326 14.4512 34.5743 13.8313 34.5743 12.9807C34.5743 12.2551 34.4326 11.6928 34.149 11.2939C33.8655 10.8951 33.4666 10.6956 32.9524 10.6956C32.443 10.6956 32.049 10.8951 31.7703 11.2939C31.4915 11.688 31.3522 12.3007 31.3522 13.1321ZM44.7237 14.1196L45.7473 9.15306H47.7584L45.7689 16.9525H44.0245L42.5468 12.0436L41.0691 16.9525H39.3318L37.3423 9.15306H39.3535L40.3698 14.1124L41.7971 9.15306H43.3037L44.7237 14.1196ZM50.7139 9.15306L50.7787 10.0541C51.3362 9.35729 52.0835 9.00889 53.0205 9.00889C53.8471 9.00889 54.4622 9.25157 54.8659 9.73693C55.2696 10.2223 55.4762 10.9479 55.4858 11.9139V16.9525H53.4026V11.9643C53.4026 11.5222 53.3065 11.2026 53.1142 11.0056C52.922 10.8038 52.6025 10.7029 52.1555 10.7029C51.5693 10.7029 51.1295 10.9527 50.8364 11.4525V16.9525H48.7532V9.15306H50.7139ZM59.2702 16.9525H57.1798V5.88046H59.2702V16.9525ZM60.6686 12.9807C60.6686 12.207 60.8176 11.5174 61.1155 10.9119C61.4135 10.3064 61.8412 9.83785 62.3986 9.50627C62.9609 9.17468 63.612 9.00889 64.3521 9.00889C65.4045 9.00889 66.2623 9.33086 66.9255 9.97481C67.5935 10.6188 67.9659 11.4934 68.0428 12.5987L68.0572 13.1321C68.0572 14.3287 67.7232 15.2898 67.0552 16.0154C66.3873 16.7363 65.491 17.0967 64.3665 17.0967C63.242 17.0967 62.3434 16.7363 61.6706 16.0154C61.0026 15.2946 60.6686 14.3143 60.6686 13.0744V12.9807ZM62.7518 13.1321C62.7518 13.8721 62.8912 14.4392 63.1699 14.8333C63.4487 15.2225 63.8475 15.4171 64.3665 15.4171C64.8711 15.4171 65.2652 15.2249 65.5487 14.8405C65.8322 14.4512 65.974 13.8313 65.974 12.9807C65.974 12.2551 65.8322 11.6928 65.5487 11.2939C65.2652 10.8951 64.8663 10.6956 64.3521 10.6956C63.8427 10.6956 63.4487 10.8951 63.1699 11.2939C62.8912 11.688 62.7518 12.3007 62.7518 13.1321ZM73.8599 16.9525C73.7638 16.7651 73.6942 16.532 73.6509 16.2533C73.1463 16.8156 72.4904 17.0967 71.683 17.0967C70.9189 17.0967 70.2846 16.8756 69.78 16.4335C69.2802 15.9914 69.0303 15.434 69.0303 14.7612C69.0303 13.9346 69.3355 13.3003 69.9458 12.8582C70.5609 12.416 71.4475 12.1926 72.6057 12.1878H73.5644V11.7409C73.5644 11.3804 73.4707 11.0921 73.2833 10.8759C73.1007 10.6596 72.8099 10.5515 72.4111 10.5515C72.0603 10.5515 71.7839 10.6356 71.5821 10.8038C71.3851 10.972 71.2866 11.2026 71.2866 11.4958H69.2033C69.2033 11.0441 69.3427 10.626 69.6214 10.2415C69.9001 9.85707 70.2942 9.55672 70.8036 9.34047C71.313 9.11942 71.8848 9.00889 72.5192 9.00889C73.4803 9.00889 74.242 9.25157 74.8042 9.73693C75.3713 10.2175 75.6548 10.8951 75.6548 11.7697V15.1504C75.6596 15.8905 75.763 16.4503 75.9648 16.83V16.9525H73.8599ZM72.1371 15.5036C72.4447 15.5036 72.7282 15.4364 72.9877 15.3018C73.2472 15.1624 73.4395 14.9774 73.5644 14.7468V13.406H72.7859C71.7431 13.406 71.188 13.7664 71.1208 14.4873L71.1136 14.6098C71.1136 14.8693 71.2049 15.0831 71.3875 15.2513C71.5701 15.4195 71.82 15.5036 72.1371 15.5036ZM76.9307 12.9951C76.9307 11.7793 77.2022 10.811 77.7453 10.0901C78.2931 9.36931 79.0404 9.00889 79.9871 9.00889C80.7463 9.00889 81.3735 9.29242 81.8684 9.85948V5.88046H83.9589V16.9525H82.0775L81.9766 16.1236C81.4576 16.7723 80.7896 17.0967 79.9726 17.0967C79.0548 17.0967 78.3171 16.7363 77.7597 16.0154C77.207 15.2898 76.9307 14.283 76.9307 12.9951ZM79.0139 13.1465C79.0139 13.8769 79.1413 14.4368 79.396 14.826C79.6507 15.2153 80.0207 15.4099 80.5061 15.4099C81.15 15.4099 81.6041 15.1384 81.8684 14.5954V11.5174C81.6089 10.9744 81.1596 10.7029 80.5205 10.7029C79.5161 10.7029 79.0139 11.5174 79.0139 13.1465ZM93.7695 16.9525C93.6734 16.7651 93.6037 16.532 93.5604 16.2533C93.0558 16.8156 92.3999 17.0967 91.5925 17.0967C90.8285 17.0967 90.1941 16.8756 89.6895 16.4335C89.1898 15.9914 88.9399 15.434 88.9399 14.7612C88.9399 13.9346 89.245 13.3003 89.8553 12.8582C90.4704 12.416 91.3571 12.1926 92.5152 12.1878H93.4739V11.7409C93.4739 11.3804 93.3802 11.0921 93.1928 10.8759C93.0102 10.6596 92.7195 10.5515 92.3206 10.5515C91.9698 10.5515 91.6935 10.6356 91.4916 10.8038C91.2946 10.972 91.1961 11.2026 91.1961 11.4958H89.1129C89.1129 11.0441 89.2522 10.626 89.5309 10.2415C89.8097 9.85707 90.2037 9.55672 90.7131 9.34047C91.2225 9.11942 91.7944 9.00889 92.4287 9.00889C93.3898 9.00889 94.1515 9.25157 94.7138 9.73693C95.2808 10.2175 95.5644 10.8951 95.5644 11.7697V15.1504C95.5692 15.8905 95.6725 16.4503 95.8743 16.83V16.9525H93.7695ZM92.0467 15.5036C92.3542 15.5036 92.6378 15.4364 92.8973 15.3018C93.1568 15.1624 93.349 14.9774 93.4739 14.7468V13.406H92.6954C91.6526 13.406 91.0976 13.7664 91.0303 14.4873L91.0231 14.6098C91.0231 14.8693 91.1144 15.0831 91.297 15.2513C91.4796 15.4195 91.7295 15.5036 92.0467 15.5036ZM109.217 13.4565C109.135 14.5858 108.717 15.4748 107.963 16.1236C107.213 16.7723 106.223 17.0967 104.993 17.0967C103.647 17.0967 102.588 16.645 101.814 15.7415C101.045 14.8333 100.661 13.5886 100.661 12.0076V11.366C100.661 10.3569 100.838 9.46782 101.194 8.69893C101.55 7.93004 102.057 7.34135 102.715 6.93288C103.378 6.5196 104.147 6.31296 105.022 6.31296C106.233 6.31296 107.208 6.63733 107.948 7.28609C108.688 7.93484 109.116 8.8455 109.231 10.0181H107.069C107.016 9.34047 106.826 8.8503 106.499 8.54755C106.177 8.24 105.685 8.08622 105.022 8.08622C104.301 8.08622 103.76 8.34572 103.4 8.86472C103.044 9.37892 102.862 10.179 102.852 11.2651V12.058C102.852 13.1921 103.023 14.0211 103.364 14.5449C103.71 15.0687 104.253 15.3306 104.993 15.3306C105.661 15.3306 106.158 15.1793 106.485 14.8765C106.817 14.5689 107.006 14.0956 107.054 13.4565H109.217ZM110.176 12.9807C110.176 12.207 110.325 11.5174 110.623 10.9119C110.921 10.3064 111.348 9.83785 111.906 9.50627C112.468 9.17468 113.119 9.00889 113.859 9.00889C114.912 9.00889 115.769 9.33086 116.433 9.97481C117.101 10.6188 117.473 11.4934 117.55 12.5987L117.564 13.1321C117.564 14.3287 117.23 15.2898 116.562 16.0154C115.894 16.7363 114.998 17.0967 113.874 17.0967C112.749 17.0967 111.85 16.7363 111.178 16.0154C110.51 15.2946 110.176 14.3143 110.176 13.0744V12.9807ZM112.259 13.1321C112.259 13.8721 112.398 14.4392 112.677 14.8333C112.956 15.2225 113.355 15.4171 113.874 15.4171C114.378 15.4171 114.772 15.2249 115.056 14.8405C115.339 14.4512 115.481 13.8313 115.481 12.9807C115.481 12.2551 115.339 11.6928 115.056 11.2939C114.772 10.8951 114.373 10.6956 113.859 10.6956C113.35 10.6956 112.956 10.8951 112.677 11.2939C112.398 11.688 112.259 12.3007 112.259 13.1321ZM125.868 13.1249C125.868 14.3263 125.594 15.2898 125.047 16.0154C124.504 16.7363 123.768 17.0967 122.841 17.0967C122.053 17.0967 121.416 16.8228 120.931 16.2749V19.9512H118.847V9.15306H120.779L120.851 9.91714C121.356 9.31164 122.014 9.00889 122.826 9.00889C123.788 9.00889 124.535 9.3645 125.068 10.0757C125.602 10.787 125.868 11.7673 125.868 13.0167V13.1249ZM123.785 12.9735C123.785 12.2479 123.655 11.688 123.396 11.2939C123.141 10.8999 122.769 10.7029 122.279 10.7029C121.625 10.7029 121.176 10.9527 120.931 11.4525V14.6458C121.185 15.16 121.639 15.4171 122.293 15.4171C123.288 15.4171 123.785 14.6026 123.785 12.9735ZM129.992 14.0043L131.433 9.15306H133.668L130.532 18.1635L130.359 18.5744C129.893 19.5932 129.124 20.1026 128.052 20.1026C127.75 20.1026 127.442 20.0569 127.13 19.9656V18.387L127.447 18.3942C127.841 18.3942 128.134 18.3341 128.326 18.214C128.523 18.0938 128.677 17.8944 128.788 17.6157L129.033 16.9741L126.301 9.15306H128.543L129.992 14.0043Z" fill="#101F54"/>
<path d="M19.1917 18.3942H133.689V19.115H19.1917V18.3942Z" fill="#101F54"/>
<g clip-path="url(#clip0_273:30362)" filter="url(#filter0_d_273:30362)">
<path d="M88.8764 48.8585C87.517 41.9615 81.4596 36.7838 74.1828 36.7838C68.4054 36.7838 63.3876 40.0624 60.8887 44.8603C54.8713 45.5 50.1934 50.5977 50.1934 56.775C50.1934 63.3921 55.571 68.7698 62.1881 68.7698H88.1767C93.6943 68.7698 98.1723 64.2917 98.1723 58.7742C98.1723 53.4965 94.0741 49.2184 88.8764 48.8585ZM78.1811 54.7759V62.7724H70.1846V54.7759H64.1872L74.1828 44.7803L84.1784 54.7759H78.1811Z" fill="white"/>
</g>
<defs>
<filter id="filter0_d_273:30362" x="47.2408" y="28.7875" width="53.8841" height="53.884" filterUnits="userSpaceOnUse" color-interpolation-filters="sRGB">
<feFlood flood-opacity="0" result="BackgroundImageFix"/>
<feColorMatrix in="SourceAlpha" type="matrix" values="0 0 0 0 0 0 0 0 0 0 0 0 0 0 0 0 0 0 127 0" result="hardAlpha"/>
<feOffset dy="2.95255"/>
<feGaussianBlur stdDeviation="1.47627"/>
<feComposite in2="hardAlpha" operator="out"/>
<feColorMatrix type="matrix" values="0 0 0 0 0 0 0 0 0 0 0 0 0 0 0 0 0 0 0.25 0"/>
<feBlend mode="normal" in2="BackgroundImageFix" result="effect1_dropShadow_273:30362"/>
<feBlend mode="normal" in="SourceGraphic" in2="effect1_dropShadow_273:30362" result="shape"/>
</filter>
<clipPath id="clip0_273:30362">
<rect width="47.9789" height="47.9789" fill="white" transform="translate(50.1934 28.7875)"/>
</clipPath>
</defs>
</svg>
