<svg width="75" height="95" viewBox="0 0 75 95" fill="none" xmlns="http://www.w3.org/2000/svg">
<g clip-path="url(#clip0_266:30225)">
<path d="M56.1634 58.447C56.1705 61.0941 57.1001 63.8009 57.099 66.4481C57.0982 69.1349 56.1663 71.762 56.1744 74.4491C42.7981 74.4471 29.4209 74.4491 16.0445 74.448C16.051 71.8065 14.798 69.0893 14.7969 66.4481C14.796 63.7556 16.0468 61.1395 16.0524 58.447C29.4231 58.4512 42.7927 58.4481 56.1634 58.447V58.447Z" fill="#15732E"/>
<path d="M40.6859 14.3109C42.5441 12.4607 45.5105 11.4862 47.3473 9.61511C54.958 17.255 62.601 24.8651 70.2298 32.4892C70.9171 33.1952 71.7551 33.8448 72.0234 34.841C72.2855 35.4893 72.2054 36.1956 72.2172 36.877C72.2184 48.0401 72.2161 59.2019 72.2189 70.3638C72.3879 72.5665 70.2832 74.6239 68.085 74.4488C64.1147 74.4488 60.1452 74.4499 56.1746 74.4488C56.1586 69.1149 56.1775 63.7809 56.1639 58.447C56.1735 52.5827 56.1681 46.7196 56.1662 40.8567C51.2109 35.9205 46.2664 30.9737 41.3142 26.0352C39.5869 24.2967 37.8326 22.5836 36.1211 20.8305C37.0595 19.9342 39.715 15.2773 40.6862 14.3106L40.6859 14.3109Z" fill="#851732"/>
<path d="M16.0394 40.8778C16.0617 46.7336 16.0371 52.5906 16.0521 58.4469C16.0414 63.7809 16.0575 69.114 16.0448 74.4479C11.8668 74.4459 7.68883 74.449 3.51087 74.4459C1.76611 74.2272 0.229559 72.7618 0.00751348 71.007C-0.00659362 66.3005 0.00328135 61.5934 0.00440992 56.8875C2.78831 54.1359 4.52517 50.5624 7.29948 47.801C9.86951 45.226 13.4812 43.4647 16.0394 40.8781V40.8778Z" fill="#FD470D"/>
<path d="M35.9011 0.00767885C36.2464 0.0504652 36.6572 -0.0852125 36.9639 0.107889C37.7976 0.270027 38.5287 0.751091 39.115 1.35151C41.6057 3.84212 44.0987 6.33049 46.592 8.81885C46.842 9.08542 47.1337 9.31483 47.3465 9.61546C44.5499 12.4641 41.7008 15.261 38.8839 18.0897C37.9602 19.0006 37.0587 19.9349 36.1203 20.8308C34.8823 21.9945 33.7108 23.2263 32.4982 24.4167C27.0139 29.9063 21.5104 35.3759 16.0388 40.8782C13.4807 43.4651 10.8914 46.0227 8.32112 48.5975C5.5471 51.3589 2.78775 54.1363 0.00385245 56.8879C-0.00574038 50.8545 0.00385245 44.8205 0.00187745 38.7879C0.00836673 37.649 -0.0164618 36.5098 0.0230381 35.3717C0.0117524 35.1409 0.185552 34.9588 0.174831 34.7285C0.336498 34.4577 0.480673 34.1759 0.637826 33.9029C1.03339 33.3782 1.52516 32.9388 1.98393 32.4707C12.3614 22.0958 22.742 11.7233 33.1225 1.35038C33.5472 0.905629 34.0333 0.501411 34.6247 0.299864C35.0394 0.161372 35.4499 -0.0401743 35.9011 0.00767885V0.00767885Z" fill="#43ECCE"/>
<path d="M27.5371 49.8597H25.9258V46.5082H22.7837V49.8597H21.1724V42.0394H22.7837V45.2084H25.9258V42.0394H27.5371V49.8597ZM35.3735 46.1268C35.3735 46.8967 35.2375 47.5717 34.9653 48.1517C34.6932 48.7318 34.3029 49.1794 33.7944 49.4945C33.2896 49.8096 32.7095 49.9672 32.0542 49.9672C31.4061 49.9672 30.8278 49.8114 30.3193 49.4999C29.8109 49.1884 29.417 48.7443 29.1377 48.1678C28.8584 47.5878 28.717 46.9218 28.7134 46.1698V45.7831C28.7134 45.0132 28.8512 44.3365 29.127 43.7528C29.4062 43.1656 29.7983 42.7162 30.3032 42.4047C30.8117 42.0896 31.3918 41.932 32.0435 41.932C32.6951 41.932 33.2734 42.0896 33.7783 42.4047C34.2868 42.7162 34.6789 43.1656 34.9546 43.7528C35.2339 44.3365 35.3735 45.0114 35.3735 45.7777V46.1268ZM33.7407 45.7723C33.7407 44.9524 33.5939 44.3293 33.3003 43.9032C33.0067 43.4771 32.5877 43.264 32.0435 43.264C31.5028 43.264 31.0856 43.4753 30.792 43.8978C30.4984 44.3168 30.3498 44.9327 30.3462 45.7455V46.1268C30.3462 46.9253 30.493 47.5448 30.7866 47.9852C31.0802 48.4257 31.5028 48.6459 32.0542 48.6459C32.5949 48.6459 33.0103 48.4346 33.3003 48.0121C33.5903 47.586 33.7371 46.9665 33.7407 46.1537V45.7723ZM38.6499 42.0394L40.6587 47.7113L42.6567 42.0394H44.7729V49.8597H43.1562V47.722L43.3174 44.0321L41.2065 49.8597H40.1001L37.9946 44.0375L38.1558 47.722V49.8597H36.5444V42.0394H38.6499ZM50.8853 46.4706H47.7915V48.5653H51.4224V49.8597H46.1802V42.0394H51.4116V43.3446H47.7915V45.2084H50.8853V46.4706Z" fill="white"/>
</g>
<defs>
<clipPath id="clip0_266:30225">
<rect width="75" height="94.4865" fill="white"/>
</clipPath>
</defs>
</svg>
