<svg width="29" height="29" viewBox="0 0 29 29" fill="none" xmlns="http://www.w3.org/2000/svg">
<g clip-path="url(#clip0_198:139)">
<path d="M0.646973 0.732544H28.3169V28.4025H0.646973V0.732544Z" fill="#F7DF1E"/>
<path d="M7.92223 23.8555L10.0396 22.574C10.4482 23.2983 10.8198 23.9112 11.7112 23.9112C12.5656 23.9112 13.1044 23.577 13.1044 22.2769V13.4357H15.7046V22.3137C15.7046 25.0068 14.1259 26.2327 11.8226 26.2327C9.7425 26.2327 8.53507 25.1555 7.92212 23.8553" fill="black"/>
<path d="M17.1168 23.5769L19.234 22.3511C19.7914 23.2613 20.5158 23.9299 21.7972 23.9299C22.8747 23.9299 23.5617 23.3912 23.5617 22.6482C23.5617 21.7567 22.8559 21.4409 21.6672 20.921L21.0173 20.6421C19.1413 19.8437 17.8969 18.8407 17.8969 16.7233C17.8969 14.773 19.3827 13.287 21.7045 13.287C23.3576 13.287 24.5463 13.8629 25.4006 15.3673L23.3759 16.6676C22.9301 15.869 22.4474 15.5532 21.7044 15.5532C20.9428 15.5532 20.4599 16.0362 20.4599 16.6676C20.4599 17.4477 20.9428 17.7636 22.0572 18.2465L22.7072 18.5251C24.9176 19.4724 26.162 20.4382 26.162 22.6111C26.162 24.9516 24.3232 26.2331 21.8529 26.2331C19.4384 26.2331 17.8782 25.0815 17.1167 23.577" fill="black"/>
</g>
<defs>
<clipPath id="clip0_198:139">
<rect width="27.6699" height="27.6699" fill="white" transform="translate(0.646973 0.732544)"/>
</clipPath>
</defs>
</svg>
